<svg xmlns="http://www.w3.org/2000/svg" enable-background="new 0 0 500 421" viewBox="0 0 500 421" id="architect-and-assistant-discussing-about-plan-with-blueprint"><path fill="#cce9ff" d="m12.857 288.051 463.938-5.365s36.5-3.166 17.948 25.99c-18.552 29.158-79.766 40.659-135.918 65.049-57.991 25.185-95.068-12.01-154.259-14.778-59.19-2.769-167.611-20.14-184.74-38.86-23.303-25.466-26.628-31.22-6.969-32.036z"></path><path fill="#f2f2f2" d="M498.366 195.711v90.892H8.031v-90.765H54.79V86.616h33.642v56.871h47.289v67.941h37.291V38.57h42.543v56.15h29.034v51.102h48.842v43.704h39.689V125.94h47.024V86.616h33.643v56.871h47.288v52.224z"></path><path fill="#424773" d="M335.815 314.902s.553 3.846.623 4.423c.07.577 6.163-.34 6.163-.34l.494-4.577s-6.519-.049-7.28.494z"></path><path fill="#0e538c" d="M336.374 318.836s-1.93 2.316-3.798 3.327c-1.868 1.009-4.802 1.41-5.906 2.455-.798.756-2.903 4.004 4.853 3.939 7.754-.065 11.493.459 12.324-.787.832-1.246-1.201-9.194-1.201-9.194s-1.837.66-6.272.26z"></path><path fill="#424773" d="M294.68 314.902s.555 3.846.622 4.423c.07.577 6.163-.34 6.163-.34l.493-4.577c.001 0-6.515-.049-7.278.494z"></path><path fill="#0e538c" d="M295.239 318.836s-1.93 2.316-3.798 3.327c-1.868 1.009-8.739 1.84-9.842 2.885-.797.754-2.123 3.792 8.789 3.509 7.752-.203 11.494.459 12.324-.787.832-1.246-1.201-9.194-1.201-9.194s-1.732.706-6.272.26z"></path><path fill="#0b4870" d="m343.414 318.055-7.852.177s-6.589-39.627-8.307-43.679c-1.212-2.891-5.882-18.418-8.559-28.24-1.073-3.925-1.818-6.943-1.907-7.864-.126-1.414 2.55-5.883 5.58-10.453a88.652 88.652 0 0 0 6.59-.354c2.083-.189 4.469-.201 6.413-.593.505 2.071.808 4.242.694 6.362-.429 8.231 2.083 17.206 2.941 25.79.96 9.583 4.873 32.255 5.024 37.38.14 5.114-.617 21.474-.617 21.474z"></path><path fill="#0b4870" d="M328.96 227.643c-2.348 5.278-5.239 7.095-7.789 12.826a133.097 133.097 0 0 0-2.474 5.845c-3.497 8.762-7.322 20.716-7.322 31.207 0 13.078-7.713 40.712-7.713 40.712h-10.036c.757-4.772 3.131-42.682 3.408-45.838.29-3.144.669-22.458 1.237-27.494.316-2.854 1.843-11.312 3.105-18.116 0 0 10.074 1.439 20.993 1.212a88.68 88.68 0 0 0 6.591-.354z"></path><path fill="#292c47" d="M313.558 221.08c-.215.025-.467.051-.77.075-.038 0-3.648.429-3.686.429h-.265a495.29 495.29 0 0 1 3.749-.429c.392-.038.72-.063.972-.075zM314.505 220.979a4.212 4.212 0 0 1-.467.05c.19-.026.328-.038.467-.05z"></path><path fill="#2a94f4" d="M335.372 227.05c-1.944.392-4.33.404-6.413.593a88.652 88.652 0 0 1-6.59.354c-10.919.227-20.993-1.212-20.993-1.212v-.025l.164-2.614.202-3.245c.139.063.29.101.429.152.556.202 3.056.732 5.833.518.114.012.227.012.341 0l.43.012h.328c.038 0 3.648-.429 3.686-.429.303-.025.555-.051.77-.075.089 0 .164-.014.24-.026.025.012.038 0 .05 0 .064-.012.139-.012.19-.025a4.79 4.79 0 0 0 .467-.05h.051c.114-.026.215-.026.329-.038.152-.012.29-.038.467-.051.025 0 .063 0 .101-.012.253-.026.556-.051.972-.089.126 0 .265-.012.404-.025h.025c1.59-.064 3.042-.139 4.355-.228.278-.025.543-.037.796-.05.618-.037 1.199-.088 1.754-.126.228-.012.442-.038.657-.051a92.063 92.063 0 0 0 3.876-.366c1.754-.214 2.941-.429 3.585-.644.177-.051.303-.101.392-.152.126-.076.429-.164.618-.291.669 1.679 1.313 3.902 1.73 5.555.202.631.404 1.275.581 1.932 0 .037.013.063.025.101.11.354.186.595.148.607z"></path><path fill="#e59a67" d="M313.558 221.08c-.215.025-.467.051-.77.075-.038 0-3.648.429-3.686.429h-.265a495.29 495.29 0 0 1 3.749-.429c.392-.038.72-.063.972-.075zM314.505 220.979a4.212 4.212 0 0 1-.467.05c.19-.026.328-.038.467-.05z"></path><path fill="#d3d3d3" d="M325.223 206.979c-5.491.063-12.308-.19-18.203-1.351-2.55-.492-4.002-1.149-4.684-1.869.076.657.151 1.301.227 1.932.303 2.335.152 4.76 0 7.044-.113 1.01-.303 2.234-.366 3.358-.063.884-1.06 3.901-.82 4.457.063.189.202.29.366.353l-.202 3.245c-12.484 1.325-22.773.354-22.773.354l-19.883-61.112s14.543 2.31 30.512.417c9.329-1.099 22.016-4.507 22.016-4.507l2.196 7.587 11.614 40.092z"></path><path fill="#0b4870" d="M180.931 315.946s-1.44 2.69-2.382 3.756c-.942 1.068-4.549 2.976-4.569 6.146-.02 3.439 6.08 2.483 8.467 2.358 2.387-.126 2.567-1.961 3.573-3.908 1.001-1.945 2.017-1.617 2.204-3.187.187-1.569-.974-5.165-.974-5.165h-6.319zM217.254 315.632s2.94 3.283 5.925 3.972c2.986.687 5.073 1.564 5.098 3.448.021 1.885-8.591 3.125-12.009 1.227-5.096-2.835-5.614-1.981-6.181-3.396-.564-1.418.679-5.206.644-5.656-.047-.558 6.523.405 6.523.405z"></path><path fill="#81807e" d="M216.923 314.062s.39 1.539.331 1.569c-.059.035-6.726.827-6.524-.406.163-1.001.397-2.09.397-2.09l5.796.927zM187.167 314.909s.28 1.466.226 1.502c-.054.036-6.762 1.234-6.724.015.029-.968.617-2.096.617-2.096l5.881.579z"></path><path fill="#2a94f4" d="M207.779 220.391s5.506 25.164 6.766 33.226c1.478 9.427 1.976 17.216 2.388 22.097.516 6.136.616 36.327.98 38.122.361 1.793-8.034.494-8.034.494s-4.13-39.445-5.671-45.982c-1.435-6.085-6.759-32.288-8.069-30.625-1.308 1.662-2.932 30.576-3.902 35.376-.969 4.799-3.918 42.379-3.918 42.379s-6.68 1.329-8.459-.174c0 0-.808-32.384-.19-41.384.234-3.431-4.019-41.121 1.435-56.293 2.883-8.021 26.674 2.764 26.674 2.764z"></path><path fill="#f1b99e" d="M242.291 179.078s4.847-5.313 5.452-5.371c.606-.059.867.245.433.761-.435.518-4.542 5.282-4.542 5.282s6.743-5.239 7.227-5.402c.285-.096.819.459.609.761-.205.298-6.605 5.904-6.605 5.904s6.304-4.876 6.751-4.885c.39-.006.761.635.317 1.031-.444.397-6.049 5.281-6.049 5.281s4.803-3.236 5.189-3.004c.235.141.716.598-.549 1.393-1.263.791-4.057 3.001-4.057 3.001l-4.176-4.752z"></path><path fill="#f1b99e" d="M237.634 186.132s1.489-1.858.936-3.151c-.47-1.098-.342-2.867-.301-3.411.051-.727-.571-3.04.29-2.962.862.079 1.196 3.766 1.41 4.527.213.762 2.033-2.154 2.762-2.399.73-.245 5.138 3.343 3.67 5.184-1.468 1.843-4.19 2.752-4.387 3.133-.196.378-1.017 1.384-1.017 1.384l-3.363-2.305zM198.633 166.003a3.08 3.08 0 0 0-.556-.316l-.088 1.06 1.357 1.78.575 6.208s-3.92-3.883-5.031-4.602c-.82-.518-.902-2.743-1.913-3.299-1.187-.656-2.385-1.236-3.332-1.489 0 0-.076.038-.214.127-.114-1.339-.379-3.738-.985-7.196 0 0 .202-.556.505-1.313.341.808.707 1.451 1.086 1.843.29.303.682.605 1.148.908 0 0 1.2 3.131 7.398 5.214.011.38.024.746.05 1.075z"></path><path fill="#f1b99e" d="M195.817 168.528c-1.704 0-3.799-.341-5.504-1.276a5.254 5.254 0 0 1-.808-.492s-.012-.429-.075-1.287c.139-.089.214-.127.214-.127.947.253 2.146.833 3.332 1.489a56.335 56.335 0 0 1 2.841 1.693zM198.594 162.91c-.012.454-.025.971-.012 1.489v.53c-6.199-2.082-7.398-5.214-7.398-5.214-.467-.303-.858-.605-1.148-.908-.379-.392-.745-1.036-1.086-1.843-.303.757-.505 1.313-.505 1.313l-.012-.026c-.089-.504-.19-1.034-.29-1.59-.051-.277.164-.354.581-.291.126.026.277.064.442.101 2.638.809 9.48 4.962 9.48 4.962s-.026.631-.052 1.477zM199.011 167.568c.139.303-.341.594-1.174.771l.152-1.59.088-1.06c.177.075.379.189.556.316.012.087.012.176.025.251.013.178.063.404.139.619.075.29.176.579.214.693z"></path><path fill="#f1b99e" d="M204.78 157.191c-.429.455-1.729 6.073-3.408 6.237-.506.051-1.527-.152-2.778-.518 0 0-.126-.038-.353-.113-1.78-.53-3.926-1.363-5.655-2.273a11.717 11.717 0 0 1-1.402-.808c-.467-.303-.858-.605-1.148-.908-.379-.392-.745-1.036-1.086-1.843-.076-.19-.151-.378-.227-.594-1.363-3.773-2.146-10.338-1.073-13.507 1.376-4.09 12.497-5.782 16.714 1.931 0 0 .467.871.897 1.907.517 1.287.959 2.814.303 3.207-.984.567 1.136 4.898 1.414 5.604.276.707-1.768 1.223-2.198 1.678z"></path><path fill="#0b4870" d="M205.26 146.701c-.013.012-.013.025-.013.025-5.794 3.686-6.084.176-8.521.77-2.437.581-.884 4.722-.884 4.722s-.909-.076-1.994.012c-.96.088-2.058.29-2.765.808-.05.038-.1.089-.164.152-.542.568-1.237 2.058-1.754 3.282-.076.177-.139.341-.215.493-.303.757-.505 1.313-.505 1.313l-.012-.026c-.101-.176-.581-1.287-2.563-8.155-2.626-9.152 2.575-9.506 3.497-9.745.921-.24 8.887-4.191 14.24-2.373 4.077 1.375 1.804 8.255 1.653 8.722z"></path><path fill="#eea886" d="M193.252 149.845c-.215-.568-.909-3.008-3.003-1.574-2.093 1.431 1.304 6.031 1.669 6.089.365.06 3.141.261 1.334-4.515z"></path><path fill="#a77860" d="M198.582 164.399v.53c-6.199-2.082-7.398-5.214-7.398-5.214.366.253.846.53 1.402.808 1.944.96 4.696 1.932 5.655 2.273.227.075.353.113.353.113-.012.455-.025.973-.012 1.49z"></path><path fill="#f1b99e" d="M320.552 164.979c-.719.303-1.514.694-2.297 1.137-.48.265-.758.909-.997 1.564-.265.732-.492 1.478-.921 1.743-1.111.719-5.024 4.594-5.024 4.594l.568-6.211.467-.607.896-1.174-.088-1.06a3.014 3.014 0 0 0-.555.316c.025-.328.038-.694.051-1.074a21.243 21.243 0 0 0 1.969-.769c.277 1.25.454 2.739.454 2.739l5.477-1.198zM321.802 164.714v.038c-.025-.012-.038-.026-.051-.038h.051z"></path><path fill="#f1b99e" d="M321.802 164.752a31.205 31.205 0 0 0-.076 1.287 5.29 5.29 0 0 1-.808.493c-1.123.618-2.424.971-3.661 1.148-.643.089-1.262.127-1.843.127a55.297 55.297 0 0 1 2.84-1.691 22.756 22.756 0 0 1 2.297-1.137h.025a8.953 8.953 0 0 1 1.01-.354s.051.026.164.089c.014.012.027.026.052.038z"></path><path fill="#f1b99e" d="m325.021 164.007-3.219.706h-.051c-.113-.063-.164-.089-.164-.089a8.885 8.885 0 0 0-1.01.354h-.025l-5.478 1.199s-.177-1.489-.454-2.739c-.152-.732-.341-1.389-.555-1.616-.025-.025-.051-.051-.089-.063-.012-.012-.025-.026-.038-.026-.391.139-.72.253-.947.342-.227.075-.354.113-.354.113-1.249.366-2.272.568-2.777.518-1.679-.164-2.979-5.782-3.409-6.237-.429-.454-2.474-.971-2.196-1.679.277-.706 2.398-5.036 1.414-5.604-.656-.392-.215-1.919.303-3.206a.039.039 0 0 1 .012.025c.506.329.972.594 1.389.809a9.78 9.78 0 0 0 1.502.631c-.139.833-.227 1.742-.303 2.764-.177 2.538.378 4.216.846 3.977.341-.176.404-2.551.543-3.864.151-1.325.984-1.792 1.931-.403.96 1.388.442 2.158.631 4.645.164 2.286 1.894 3.623 3.244 4.292.114.063.227.113.328.164.543.239 1.956.29 3.484.265h.013c.113.012.202 0 .316 0 .896-.012 1.805-.063 2.601-.101.707-.051 1.325-.089 1.742-.126.05 2.487.77 4.949.77 4.949z"></path><path fill="#f1b99e" d="M312.65 163.678c.012-.517 0-1.034-.013-1.489 0 0 .126-.038.354-.113.227-.089.555-.202.947-.342.012 0 .025.014.038.026a.222.222 0 0 1 .089.063c.215.227.404.884.555 1.616-.594.265-1.25.53-1.969.769v-.53zM312.216 166.852c-.139.303.341.594 1.174.77l-.152-1.59-.088-1.06a3.021 3.021 0 0 0-.556.316c-.012.087-.012.176-.025.251a2.525 2.525 0 0 1-.139.619c-.075.29-.176.58-.214.694z"></path><path fill="#f1b99e" d="M313.975 161.76c-.341.113-.669.215-.984.316.227-.089.555-.202.947-.342.012 0 .025.014.037.026zM318.356 148.177a.384.384 0 0 1-.051.101c-.152-.026-.29-.064-.429-.089-.089-.012-.568-.101-1.313-.227.631.1 1.224.164 1.793.215z"></path><path fill="#0e538c" d="M325.917 149.464c-.366 2.866-1.237 5.757-1.553 7.651-.113.618-.139 1.287-.113 1.944-.417.037-1.035.075-1.742.126-.795.038-1.704.089-2.601.101-.113 0-.202.012-.316 0h-.013c-1.527.025-2.941-.026-3.484-.265-.101-.051-.214-.101-.328-.164-1.351-.669-3.08-2.007-3.244-4.292-.189-2.487.329-3.257-.631-4.645-.947-1.389-1.78-.922-1.931.403-.139 1.313-.202 3.687-.543 3.864-.467.239-1.023-1.439-.846-3.977.076-1.022.164-1.931.303-2.764a9.882 9.882 0 0 1-1.502-.631 15.98 15.98 0 0 1-1.389-.809s0-.012-.012-.025c0-.012.012-.012.012-.026.48.127.997.241 1.54.354 1.515.316 3.206.644 4.759.922.921.176 1.805.328 2.575.454.051 0 .088.014.139.014.24.037.467.087.695.126.303.05.581.101.871.139.745.126 1.224.215 1.313.227.139.025.277.063.429.089.543.113 1.086.227 1.641.328.114.025.24.051.354.063.454.089.909.164 1.363.241.745.126 1.489.227 2.247.328.479.063.96.113 1.439.176.19.01.379.023.568.048z"></path><path fill="#0b4870" d="M318.356 148.177a.384.384 0 0 1-.051.101c-.152-.026-.29-.064-.429-.089-.089-.012-.568-.101-1.313-.227.631.1 1.224.164 1.793.215zM305.984 145.954c0 .014-.012.014-.012.026 0-.012 0-.012-.013-.026h.025z"></path><path fill="#2a94f4" d="M339.016 191.375s-1.285 16.333-2.57 18.26c-1.284 1.927-7.615-.642-7.615-.642l3.303-19.635"></path><path fill="#2a94f4" d="M338.716 194.902c-1.244.143-1.162-1.985-2.064-1.985-2.059 0-3.227-.23-3.227-.23s-1.177 1.045-2.785 2.454c.087-.759.198-1.728.318-2.874.033-.276.066-.572.1-.87.011-.054.011-.121.021-.175l.067-.639c.022-.275.055-.551.087-.848.078-.738.166-1.52.254-2.335.088-.826.176-1.684.276-2.576.055-.496.11-.99.153-1.497.1-.859.199-1.728.287-2.599.044-.451.098-.913.143-1.376.01-.033.01-.055.01-.078.034-.275.055-.54.088-.804.418-4.008.826-7.873 1.112-10.625 1.784 1.08 5.329 3.997 5.726 10.614.033.362.055.759.066 1.188.188 3.262.026 10.496-.632 15.255z"></path><path fill="#f1b99e" d="m321.751 164.714-1.174.265a8.953 8.953 0 0 1 1.01-.354s.051.026.164.089zM318.356 148.177a.384.384 0 0 1-.051.101c-.152-.026-.29-.064-.429-.089-.089-.012-.568-.101-1.313-.227.631.1 1.224.164 1.793.215z"></path><path fill="#2a94f4" d="M327.505 167.129s-.293-2.309-1.17-3.128c-.877-.818-6.725-.818-8.479-.6-1.755.219-6.08 2.238-6.651 2.664-.572.425.556 2.646.556 2.646l15.744-1.582z"></path><path fill="#ffbe55" d="M332.924 217.406c.088.492.214.884.126 1.25-.013.075-.076.15-.165.201-.189.127-.492.215-.618.291-.089.05-.215.101-.392.152-.644.215-1.831.429-3.585.644a92.063 92.063 0 0 1-3.876.366c-.215.012-.429.038-.657.051-.555.038-1.136.089-1.754.126-.253.013-.518.026-.796.05-1.313.089-2.765.164-4.355.228h-.025c-.139.012-.278.025-.404.025-.416.038-.719.063-.972.089-.038.012-.075.012-.101.012-.177.012-.316.038-.467.051-.113.012-.215.012-.329.038h-.051a9.742 9.742 0 0 0-.467.05c-.051.012-.126.012-.19.025-.012 0-.025.012-.05 0-.076.012-.152.026-.24.026-.252.012-.581.037-.972.075-.037 0-3.244.366-3.749.429h-.063l-.43-.012h-.341c-2.777.215-5.276-.316-5.833-.518-.139-.051-.29-.089-.429-.152-.164-.063-.303-.164-.366-.353-.24-.556.758-3.573.82-4.457.064-1.124.253-2.349.366-3.358.152-2.284.303-4.709 0-7.044a415.71 415.71 0 0 1-.227-1.932c.682.72 2.133 1.377 4.684 1.869 5.895 1.161 12.712 1.414 18.203 1.351 3.257-.026 6.059-.165 7.902-.291a93 93 0 0 0-.681 4.394c-.228 1.678.063 3.357.265 5.011.042.391.168.934.219 1.313zM338.617 176.883v.077c-.126 2.007-.454 4.355-.871 6.892-9.846 1.073-26.144-.568-26.144-.568s-14.58 6.148-1.919 8.622c9.556 1.869 21.474 1.388 26.308 1.035-.316 1.564-.656 3.105-.972 4.621v.012c-9.884 1.072-26.081-.568-26.081-.568s-5.504 2.322-6.817 4.683c-.833-7.94-1.452-17.345-1.098-23.379.038-.556.088-1.086.152-1.566.618-4.722 4.507-8.369 12.258-9.86 3.509-.694 7.801-.921 12.952-.618-.001.001 12.977-1.111 12.232 10.617z"></path><path fill="#fcd2b1" d="M337.746 183.852c-.113.706-.24 1.439-.379 2.171a173.12 173.12 0 0 1-.896 4.582c-.152.783-.316 1.553-.48 2.336-4.834.353-16.752.834-26.308-1.035-12.661-2.474 1.919-8.622 1.919-8.622s16.297 1.64 26.144.568zM335.019 197.574c-.164.744-.328 1.477-.48 2.197a278.796 278.796 0 0 0-1.073 5.175c-.113.605-.227 1.186-.341 1.742-4.949.341-16.701.783-26.106-1.06-2.55-.492-4.002-1.149-4.684-1.869a83.94 83.94 0 0 1-.215-2.057v-.012c1.312-2.361 6.817-4.683 6.817-4.683s16.198 1.639 26.082.567z"></path><path fill="#fcd2b1" d="M302.121 201.701c.063.708.139 1.389.215 2.057-.619-.643-.606-1.349-.215-2.057z"></path><path fill="#2a94f4" d="M310.158 189.082s-5.744 21.177-10.396 22.656c-2.667.848-23.261-12.234-23.261-12.234l4.625-2.967 14.87 4.524 3.53-14.547 10.632 2.568z"></path><path fill="#f1b99e" d="M268.605 195.167c-.113-.306-.191-.628-.341-.92-.328-.636-.963-1.063-1.333-1.675-.289-.481-.397-1.044-.603-1.566-.232-.593-.925-1.492-.457-1.723-.219-.353-.51-.736-.714-1.098-.156-.274-.318-.842.033-.904.523-.09 1.292.404 1.715.615.561.28 1.563 1.163 2.087 1.502 1.185.768 2.326.883 2.326.883s-.375-.351-.262-.625c.174-.423 1.285-.12 2.34-.297.546-.094 2.319 1.068 2.886 1.382.567.316 1.848 2.956 2.148 3.491.786 1.404 3.224 2.517 3.224 2.517l-3.663 3.527c-.089.081-.763-.393-.849-.446-.361-.217-.804-.444-1.232-.481-1.754-.883-3.943-.889-5.574-2.043-.747-.528-1.386-1.24-1.714-2.095l-.017-.044z"></path><path fill="#f2a19c" d="M271.318 190.281c.904.475 1.544.399 2.247.526.552.1.644.334 1.236.42-.694.38-.833-.084-2.091-.144-.583-.03-1.196-.073-1.59-.51-.135-.149.005-.37.198-.292z"></path><path fill="#2a94f4" d="M308.765 193.778c-4.164 0-8.428-.74-10.587-1.709 1.122-11.574 4.01-18.478 6.056-20.769 1.281-1.434 3.247-2.135 5.119-1.701 2.201.51 4.841 2.421 4.842 8.656.001 3.671-4.622 14.168-5.43 15.523z"></path><path fill="#ffbe55" d="M327.584 149.199c-.101.505-.871.417-.871.417-.594-.038-1.212-.075-1.806-.139-.076 0-.164-.012-.253-.012-.189-.025-.379-.038-.568-.051-.48-.063-.96-.113-1.439-.176a64.586 64.586 0 0 1-2.247-.328c-.455-.077-.909-.152-1.363-.241a3.37 3.37 0 0 1-.354-.063 61.823 61.823 0 0 1-1.641-.328.417.417 0 0 0 .051-.101 26.478 26.478 0 0 1-1.793-.215c-.29-.038-.568-.089-.871-.139-.228-.038-.455-.089-.695-.126-.051 0-.088-.014-.139-.014a94.738 94.738 0 0 1-2.575-.454 183.998 183.998 0 0 1-4.759-.922 29.967 29.967 0 0 1-1.54-.354h-.025c-1.729-.403-3.03-.795-3.32-1.085-.783-.821 1.578-1.351 2.714-1.541.354-.075.581-.1.581-.1l.012.012c.139-1.54.568-3.965 1.957-6.073 1.717-2.626 4.873-4.771 10.693-4.166.732.089 1.414.19 2.058.328l.013.014c10.086 2.12 8.697 11.273 7.751 14.833-.001.002.593.279.429 1.024z"></path><path fill="#ffb41d" d="M317.093 148.177a.384.384 0 0 1-.051.101c-.152-.026-.29-.064-.429-.089-.089-.012-.568-.101-1.313-.227.632.1 1.225.164 1.793.215z"></path><path fill="#fcd2b1" d="M242.164 187.652s-.194-.535-.602-1.243c-.621-1.097-1.738-2.621-3.388-3.338 0 0-7.919 5.929-11.229 7.794-.292.154-.611.33-.931.493 0 0-.078.048-.223.128-2.659 1.338-6.232 2.795-9.182 4.823-2.31-7.453-5.863-22.818-10.996-26.885l-.011-.01c-1.291-1.02-2.669-1.329-4.163-.62 0 0-7.678 5.22-2.573 18.217 1.786 4.532 4.183 8.287 6.552 11.238 2.66 3.32 5.275 5.64 6.952 6.969h-.004s2.417 2.425 4.722 2.244c2.306-.183 4.593-2.165 4.593-2.165h-.001c6.379-4.288 20.484-17.645 20.484-17.645"></path><path fill="#ffe3ca" d="M211.166 194.165c-.644 13.722-2.752 13.091-2.512 25.336 0 .189.063.769.126 1.249.025.303.063.568.089.682.063.342.126 1.175-.707 1.339-.025.227-.05.441-.088.631-.72 3.875-4.608 3.939-9.077 2.563-7.018-2.146-15.464-7.41-15.464-7.41s-1.578-.404-.189-6.514c.695-3.093.43-6.287-.732-9.229-1.956-4.999-4.86-13.053-6.059-19.756-.48-2.638-.77-4.785-.795-6.565-.05-5.315 2.348-7.221 9.695-8.925.96-.227 1.919-.441 2.853-.644.682-.152 1.351-.277 2.007-.404.909-.176.081.595.952.494 1.01.556 2.377 2.001 3.198 2.519 1.111.719 3.553 1.702 3.553 1.702l.579-3.13.051-2.128c.177.012.101.05.278.075.088.012.21.14.299.165.366.063.281.051.621.126 3.055.669 4.961 1.78 7.322 3.964 3.748 3.46 4.657 9.772 4 23.86z"></path><path fill="#f4d5b5" d="M181.983 228.465c-.59.096-2.098-2.552-2.098-2.552l.633-.838a2.83 2.83 0 0 1 1.424-.999l.103-.032a1.213 1.213 0 0 1 1.363.47c.434.642 1.102 1.375 1.879 1.345h.013c.028.012.056.012.083.012.685.017-2.81 2.498-3.4 2.594"></path><path fill="#0e538c" d="M197.504 174.011s1.675 26.174.248 35.471c0 0 1.865 5.011 3.072 5.437 1.208.427 2.089-2.535 3.273-5.747 1.183-3.212-4.338-35.388-4.338-35.388l-2.255.227z"></path><path fill="#0e538c" d="m196.11 172.363 1.394 1.648 2.254-.227s.127-.788.162-2.86c0 0-1.326-.839-2.167-.788l-1.643 2.227z"></path><path fill="#fcd2b1" d="m197.75 170.132-1.287 2.65-.202.417s-5.063-3.585-6.123-4.229c-.631-.392-1.3-.732-1.792-.973-.404-.202-.682-.316-.682-.316.694-1.06 1.119-1.705 1.473-1.932.139-.089.215-.127.215-.127.947.253 2.478.897 3.665 1.553a56.28 56.28 0 0 1 2.84 1.693 79.45 79.45 0 0 1 1.893 1.264zM200.589 172.037a2.063 2.063 0 0 0-.177-.328v-.012c-.669-1.086-2.274-1.531-2.274-1.531l.254-1.511.152-1.59.088-1.06c.177.075.379.189.556.316a8.197 8.197 0 0 1 1.148.896c.025.063.05.126.063.176 1.061 2.978.19 4.644.19 4.644z"></path><path fill="#e5bb98" d="M183.621 224.143s.942 1.18 1.222 1.335c.278.154.327-.173.22-.403-.105-.23-1.4-1.246-1.442-.932"></path><path fill="#ffe3ca" d="M178.473 169.625s-7.398 1.503-11.312 36.08l8.196 3.91s5.387-26.458 8.124-32.668c2.15-4.876-1.098-8.007-5.008-7.322"></path><path fill="#d3d3d3" d="m179.473 243.824-15.87-23.329 30.708-23.917 15.871 23.328z"></path><path fill="#0b4870" d="m210.877 220.095-19.021 14.819-.432.334-11.255 8.772-17.821-22.888 11.773-9.171 2.603-2.02 16.33-12.723z"></path><path fill="#ffe3ca" d="M167.161 205.664s8.124 17.326 18.476 27.202l3.41-2.362s-6.409-17.533-14.131-27.569c-7.722-10.037-7.755 2.729-7.755 2.729"></path><path fill="#f1b99e" d="M189.538 239.373s-.623-.328-.825-.604c0 0-.332-.53-.589-.891a3.617 3.617 0 0 0-.212-.272c-.228-.242-.803-.713-1.184-1.45-.384-.738-1.471-3.486-1.471-3.486l2.178-1.341 1.489-1.645s4.335 2.602 4.77 3.25c.042.064.081.127.115.192.316.583.306 1.15.437 1.476.048.12.439 1.343.232 1.666-.287.449-.667.645-1.033.647 0 0-.6.854-1.277 1.043 0 0-.53.805-1.438.799 0-.002-.625.757-1.192.616z"></path><path fill="#ffbe55" d="M207.267 140.979c-.541-2.733-2.824-10.278-11.53-9.531-12.91 1.104-13.204 9.575-11.607 15.854l-.003-.001s-.565.359-.398.971c0 0 .219.492.792.42 0 0 1.474-.144 3.237-.616 4.825-.98 13.889-3.077 19.189-5.88.144.009.303-.052.472-.248.62-.718-.152-.969-.152-.969"></path><path fill="#ffbe55" d="M192.954 146.413s6.924 2.287 14.41-.026c0 0 5.477-1.636.056-4.439l-14.466 4.465zM313.558 221.08c-.215.025-.467.051-.77.075-.038 0-3.648.429-3.686.429h-.265a495.29 495.29 0 0 1 3.749-.429c.392-.038.72-.063.972-.075zM314.505 220.979a4.212 4.212 0 0 1-.467.05c.19-.026.328-.038.467-.05z"></path></svg>